<?xml version="1.0" encoding="UTF-8" standalone="no"?><!DOCTYPE svg PUBLIC "-//W3C//DTD SVG 1.1//EN" "http://www.w3.org/Graphics/SVG/1.1/DTD/svg11.dtd"><!-- Generated by graphviz version 2.39.20160930.0541 (20160930.0541) --><!-- Title: FlowChart Pages: 1 --><svg width="462pt" height="604pt" viewBox="0.00 0.00 461.92 603.6" xmlns="http://www.w3.org/2000/svg" xmlns:xlink="http://www.w3.org/1999/xlink"><defs><radialGradient id="g-terminatorai835apwp02nqf286zme7b9" cx="0.5" cy="0.5" fx="0.9" fy="0.9" r="1" x1="0%" x2="0%" y1="100%" y2="0%" spreadMethod="pad"><stop offset="0%" stop-color="#C32F06" stop-opacity="1"/><stop offset="100%" stop-color="#C32F06" stop-opacity="1"/></radialGradient><radialGradient id="g-decisionai835apwp02nqf286zme7b9" cx="0.5" cy="0.5" fx="0.9" fy="0.9" r="1" x1="0%" x2="0%" y1="100%" y2="0%" spreadMethod="pad"><stop offset="0%" stop-color="#d1461b" stop-opacity="1"/><stop offset="100%" stop-color="#d1461b" stop-opacity="1"/></radialGradient><radialGradient id="g-processai835apwp02nqf286zme7b9" cx="0.5" cy="0.5" fx="0.9" fy="0.9" r="1" x1="0%" x2="0%" y1="100%" y2="0%" spreadMethod="pad"><stop offset="0%" stop-color="#3f51b5" stop-opacity="1"/><stop offset="100%" stop-color="#3f51b5" stop-opacity="1"/></radialGradient><radialGradient id="g-defaultai835apwp02nqf286zme7b9" cx="0.5" cy="0.5" fx="0.9" fy="0.9" r="1" x1="0%" x2="0%" y1="100%" y2="0%" spreadMethod="pad"><stop offset="0%" stop-color="#005100" stop-opacity="1"/><stop offset="100%" stop-color="#005100" stop-opacity="1"/></radialGradient><radialGradient id="g-moduleai835apwp02nqf286zme7b9" cx="0.5" cy="0.5" fx="0.9" fy="0.9" r="1" x1="0%" x2="0%" y1="100%" y2="0%" spreadMethod="pad"><stop offset="0%" stop-color="#009688" stop-opacity="1"/><stop offset="100%" stop-color="#009688" stop-opacity="1"/></radialGradient><radialGradient id="g-dataioai835apwp02nqf286zme7b9" cx="0.5" cy="0.5" fx="0.9" fy="0.9" r="1" x1="0%" x2="0%" y1="100%" y2="0%" spreadMethod="pad"><stop offset="0%" stop-color="#607d8b" stop-opacity="1"/><stop offset="100%" stop-color="#607d8b" stop-opacity="1"/></radialGradient><radialGradient id="g-preparationai835apwp02nqf286zme7b9" cx="0.5" cy="0.5" fx="0.9" fy="0.9" r="1" x1="0%" x2="0%" y1="100%" y2="0%" spreadMethod="pad"><stop offset="0%" stop-color="#607d8b" stop-opacity="1"/><stop offset="100%" stop-color="#607d8b" stop-opacity="1"/></radialGradient><radialGradient id="g-commentai835apwp02nqf286zme7b9" cx="0.5" cy="0.5" fx="0.9" fy="0.9" r="1" x1="0%" x2="0%" y1="100%" y2="0%" spreadMethod="pad"><stop offset="0%" stop-color="#ffab40" stop-opacity="1"/><stop offset="100%" stop-color="#ffab40" stop-opacity="1"/></radialGradient><radialGradient id="g-manualai835apwp02nqf286zme7b9" cx="0.5" cy="0.5" fx="0.9" fy="0.9" r="1" x1="0%" x2="0%" y1="100%" y2="0%" spreadMethod="pad"><stop offset="0%" stop-color="#673ab7" stop-opacity="1"/><stop offset="100%" stop-color="#673ab7" stop-opacity="1"/></radialGradient></defs><g id="page0,1_graph0" class="graph" transform="scale(1 1) rotate(0) translate(4 594.6)"><title>FlowChart</title><!-- terminator_block_1 --><g id="node1" class="node"><title>terminator_block_1</title><ellipse fill="url(#g-terminatorai835apwp02nqf286zme7b9)" stroke="#C32F06" cx="58.417" cy="-572.6" rx="27" ry="18"/><text text-anchor="start" x="45.417" y="-570.1" font-family="Open Sans, Noto Sans SC, Noto Sans TC, Noto Sans JP, Noto Sans KR" font-size="10.00" fill="white">Begin</text></g><!-- process_block_2 --><g id="node2" class="node"><title>process_block_2</title><polygon fill="url(#g-processai835apwp02nqf286zme7b9)" stroke="#3f51b5" points="185.417,-527.6 59.417,-527.6 59.417,-491.6 185.417,-491.6 185.417,-527.6"/><text text-anchor="start" x="66.417" y="-507.1" font-family="Open Sans, Noto Sans SC, Noto Sans TC, Noto Sans JP, Noto Sans KR" font-size="10.00" fill="white">Authenticate(user, pass)</text></g><!-- terminator_block_1&#45;&gt;process_block_2 --><g id="edge1" class="edge"><title>terminator_block_1->process_block_2</title><path fill="none" stroke="#000000" d="M73.5841,-557.67C80.3486,-551.011 88.5159,-542.971 96.2191,-535.389"/><polygon fill="#000000" stroke="#000000" points="99.0273,-537.536 103.699,-528.026 94.1167,-532.547 99.0273,-537.536"/></g><!-- process_block_3 --><g id="node3" class="node"><title>process_block_3</title><polygon fill="url(#g-processai835apwp02nqf286zme7b9)" stroke="#3f51b5" points="294.917,-464.6 191.917,-464.6 191.917,-428.6 294.917,-428.6 294.917,-464.6"/><text text-anchor="start" x="198.917" y="-444.1" font-family="Open Sans, Noto Sans SC, Noto Sans TC, Noto Sans JP, Noto Sans KR" font-size="10.00" fill="white">FetchHTML(course)</text></g><!-- process_block_2&#45;&gt;process_block_3 --><g id="edge2" class="edge"><title>process_block_2->process_block_3</title><path fill="none" stroke="#000000" d="M157.091,-491.547C170.381,-484.627 185.719,-476.641 199.745,-469.338"/><polygon fill="#000000" stroke="#000000" points="201.485,-472.379 208.738,-464.656 198.252,-466.17 201.485,-472.379"/></g><!-- process_block_4 --><g id="node4" class="node"><title>process_block_4</title><polygon fill="url(#g-processai835apwp02nqf286zme7b9)" stroke="#3f51b5" points="383.917,-401.6 308.917,-401.6 308.917,-365.6 383.917,-365.6 383.917,-401.6"/><text text-anchor="start" x="315.917" y="-381.1" font-family="Open Sans, Noto Sans SC, Noto Sans TC, Noto Sans JP, Noto Sans KR" font-size="10.00" fill="white">FindAllLinks()</text></g><!-- process_block_3&#45;&gt;process_block_4 --><g id="edge3" class="edge"><title>process_block_3->process_block_4</title><path fill="none" stroke="#000000" d="M272.933,-428.547C283.923,-421.825 296.557,-414.097 308.215,-406.966"/><polygon fill="#000000" stroke="#000000" points="310.193,-409.86 316.897,-401.656 306.54,-403.888 310.193,-409.86"/></g><!-- process_block_5 --><g id="node5" class="node"><title>process_block_5</title><polygon fill="url(#g-processai835apwp02nqf286zme7b9)" stroke="#3f51b5" points="380.917,-338.6 311.917,-338.6 311.917,-302.6 380.917,-302.6 380.917,-338.6"/><text text-anchor="start" x="318.917" y="-318.1" font-family="Open Sans, Noto Sans SC, Noto Sans TC, Noto Sans JP, Noto Sans KR" font-size="10.00" fill="white">current_link</text></g><!-- process_block_4&#45;&gt;process_block_5 --><g id="edge4" class="edge"><title>process_block_4->process_block_5</title><path fill="none" stroke="#000000" d="M346.417,-365.378C346.417,-360.329 346.417,-354.723 346.417,-349.234"/><polygon fill="#000000" stroke="#000000" points="349.917,-348.999 346.417,-339 342.917,-349 349.917,-348.999"/></g><!-- nop_block_6 --><g id="node6" class="node"><title>nop_block_6</title><ellipse fill="#000000" stroke="#000000" cx="346.417" cy="-273.8" rx="1.8" ry="1.8"/><text text-anchor="start" x="342.617" y="-279.6" font-family="Open Sans, Noto Sans SC, Noto Sans TC, Noto Sans JP, Noto Sans KR" font-weight="bold" font-size="10.00" fill="#000000"> </text></g><!-- process_block_5&#45;&gt;nop_block_6 --><g id="edge5" class="edge"><title>process_block_5->nop_block_6</title><path fill="none" stroke="#000000" d="M346.417,-302.372C346.417,-292.106 346.417,-280.442 346.417,-275.83"/></g><!-- ifs_block_7 --><g id="node7" class="node"><title>ifs_block_7</title><polygon fill="url(#g-decisionai835apwp02nqf286zme7b9)" stroke="#d1461b" points="229.417,-245 170.203,-227 229.417,-209 288.632,-227 229.417,-245"/><text text-anchor="start" x="201.917" y="-224.5" font-family="Open Sans, Noto Sans SC, Noto Sans TC, Noto Sans JP, Noto Sans KR" font-size="10.00" fill="white">isMoreLinks</text></g><!-- nop_block_6&#45;&gt;ifs_block_7 --><g id="edge8" class="edge"><title>nop_block_6->ifs_block_7</title><path fill="none" stroke="#000000" d="M344.386,-272.988C334.967,-269.22 294.712,-253.118 264.471,-241.022"/><polygon fill="#000000" stroke="#000000" points="265.642,-237.72 255.057,-237.256 263.042,-244.22 265.642,-237.72"/></g><!-- ifs_block_8 --><g id="node8" class="node"><title>ifs_block_8</title><polygon fill="url(#g-decisionai835apwp02nqf286zme7b9)" stroke="#d1461b" points="82.417,-172 0.0828994,-154 82.417,-136 164.751,-154 82.417,-172"/><text text-anchor="start" x="40.917" y="-151.5" font-family="Open Sans, Noto Sans SC, Noto Sans TC, Noto Sans JP, Noto Sans KR" font-size="10.00" fill="white">current_link is pdf</text></g><!-- ifs_block_7&#45;&gt;ifs_block_8 --><g id="edge6" class="edge"><title>ifs_block_7->ifs_block_8</title><path fill="none" stroke="#000000" d="M206.77,-215.754C182.748,-203.824 144.51,-184.835 116.773,-171.061"/><polygon fill="#000000" stroke="#000000" points="118.318,-167.921 107.805,-166.608 115.205,-174.19 118.318,-167.921"/><text text-anchor="start" x="165.417" y="-189" font-family="Open Sans, Noto Sans SC, Noto Sans TC, Noto Sans JP, Noto Sans KR" font-weight="bold" font-size="10.00" fill="#000000"> True </text><polyline fill="none" stroke="#000000" points="193.417,-185 145.099,-185 "/></g><!-- terminator_block_11 --><g id="node11" class="node"><title>terminator_block_11</title><ellipse fill="url(#g-terminatorai835apwp02nqf286zme7b9)" stroke="#C32F06" cx="256.417" cy="-154" rx="27" ry="18"/><text text-anchor="start" x="248.417" y="-151.5" font-family="Open Sans, Noto Sans SC, Noto Sans TC, Noto Sans JP, Noto Sans KR" font-size="10.00" fill="white">Exit</text></g><!-- ifs_block_7&#45;&gt;terminator_block_11 --><g id="edge12" class="edge"><title>ifs_block_7->terminator_block_11</title><path fill="none" stroke="#000000" d="M235.409,-210.799C238.625,-202.104 242.675,-191.156 246.358,-181.197"/><polygon fill="#000000" stroke="#000000" points="249.688,-182.282 249.875,-171.689 243.123,-179.854 249.688,-182.282"/><text text-anchor="start" x="245.417" y="-189" font-family="Open Sans, Noto Sans SC, Noto Sans TC, Noto Sans JP, Noto Sans KR" font-weight="bold" font-size="10.00" fill="#000000"> False </text><polyline fill="none" stroke="#000000" points="275.417,-185 244.962,-185 "/></g><!-- process_block_9 --><g id="node9" class="node"><title>process_block_9</title><polygon fill="url(#g-processai835apwp02nqf286zme7b9)" stroke="#3f51b5" points="127.917,-99 6.91702,-99 6.91702,-63 127.917,-63 127.917,-99"/><text text-anchor="start" x="13.917" y="-78.5" font-family="Open Sans, Noto Sans SC, Noto Sans TC, Noto Sans JP, Noto Sans KR" font-size="10.00" fill="white">download(current_link)</text></g><!-- ifs_block_8&#45;&gt;process_block_9 --><g id="edge7" class="edge"><title>ifs_block_8->process_block_9</title><path fill="none" stroke="#000000" d="M78.8622,-136.7C77.1753,-128.49 75.1161,-118.469 73.2118,-109.201"/><polygon fill="#000000" stroke="#000000" points="76.5968,-108.285 71.1556,-99.1945 69.7401,-109.694 76.5968,-108.285"/><text text-anchor="start" x="76.417" y="-116" font-family="Open Sans, Noto Sans SC, Noto Sans TC, Noto Sans JP, Noto Sans KR" font-weight="bold" font-size="10.00" fill="#000000"> True </text><polyline fill="none" stroke="#000000" points="104.417,-112 73.9321,-112 "/></g><!-- process_block_10 --><g id="node10" class="node"><title>process_block_10</title><polygon fill="url(#g-processai835apwp02nqf286zme7b9)" stroke="#3f51b5" points="285.917,-36 230.917,-36 230.917,-0 285.917,-0 285.917,-36"/><text text-anchor="start" x="237.917" y="-15.5" font-family="Open Sans, Noto Sans SC, Noto Sans TC, Noto Sans JP, Noto Sans KR" font-size="10.00" fill="white">next_link</text></g><!-- ifs_block_8&#45;&gt;process_block_10 --><g id="edge10" class="edge"><title>ifs_block_8->process_block_10</title><path fill="none" stroke="#000000" d="M102.597,-140.398C118.527,-129.511 141.194,-113.687 160.417,-99 184.205,-80.8247 210.294,-59.1729 229.569,-42.8296"/><polygon fill="#000000" stroke="#000000" points="232.04,-45.3229 237.386,-36.1759 227.502,-39.9924 232.04,-45.3229"/><text text-anchor="start" x="204.417" y="-79.5" font-family="Open Sans, Noto Sans SC, Noto Sans TC, Noto Sans JP, Noto Sans KR" font-weight="bold" font-size="10.00" fill="#000000"> False </text><polyline fill="none" stroke="#000000" points="234.417,-75.5 189.937,-75.5 "/></g><!-- process_block_9&#45;&gt;process_block_10 --><g id="edge9" class="edge"><title>process_block_9->process_block_10</title><path fill="none" stroke="#000000" d="M122.15,-62.9467C153.763,-52.5193 192.714,-39.6718 220.864,-30.3867"/><polygon fill="#000000" stroke="#000000" points="222.312,-33.5945 230.713,-27.1381 220.119,-26.9468 222.312,-33.5945"/></g><!-- process_block_10&#45;&gt;nop_block_6 --><g id="edge11" class="edge"><title>process_block_10->nop_block_6</title><path fill="none" stroke="#000000" d="M286.191,-25.6537C323.837,-36.8638 386.417,-58.8326 386.417,-81 386.417,-227 386.417,-227 386.417,-227 386.417,-245.143 368.83,-259.803 356.979,-267.621"/><polygon fill="#000000" stroke="#000000" points="354.921,-264.774 348.136,-272.911 358.514,-270.781 354.921,-264.774"/></g><!-- comment_block_12 --><g id="node12" class="node"><title>comment_block_12</title><polygon fill="url(#g-commentai835apwp02nqf286zme7b9)" stroke="#ffab40" points="442.917,-464.6 359.917,-464.6 359.917,-428.6 448.917,-428.6 448.917,-458.6 442.917,-464.6"/><polyline fill="white" stroke="#ffab40" points="442.917,-464.6 442.917,-458.6 " stroke-width="0"/><polyline fill="white" stroke="#ffab40" points="448.917,-458.6 442.917,-458.6 " stroke-width="0"/><text text-anchor="start" x="363.917" y="-447.6" font-family="Open Sans, Noto Sans SC, Noto Sans TC, Noto Sans JP, Noto Sans KR" font-size="8.00" fill="black">  Find all links to other</text><text text-anchor="start" x="374.917" y="-438.6" font-family="Open Sans, Noto Sans SC, Noto Sans TC, Noto Sans JP, Noto Sans KR" font-size="8.00" fill="black">  module pages;</text></g><!-- comment_block_12&#45;&gt;process_block_4 --><g id="edge13" class="edge"><title>comment_block_12->process_block_4</title><path fill="none" stroke="#000000" stroke-dasharray="5,2" d="M387.641,-428.378C380.013,-420.092 371.004,-410.306 363.356,-402"/></g><!-- comment_block_13 --><g id="node13" class="node"><title>comment_block_13</title><polygon fill="url(#g-commentai835apwp02nqf286zme7b9)" stroke="#ffab40" points="358.417,-527.6 250.417,-527.6 250.417,-491.6 364.417,-491.6 364.417,-521.6 358.417,-527.6"/><polyline fill="white" stroke="#ffab40" points="358.417,-527.6 358.417,-521.6 " stroke-width="0"/><polyline fill="white" stroke="#ffab40" points="364.417,-521.6 358.417,-521.6 " stroke-width="0"/><text text-anchor="start" x="254.417" y="-510.6" font-family="Open Sans, Noto Sans SC, Noto Sans TC, Noto Sans JP, Noto Sans KR" font-size="8.00" fill="black">  Read HTML for Canvas LMS</text><text text-anchor="start" x="281.917" y="-501.6" font-family="Open Sans, Noto Sans SC, Noto Sans TC, Noto Sans JP, Noto Sans KR" font-size="8.00" fill="black">  course page;</text></g><!-- comment_block_13&#45;&gt;process_block_3 --><g id="edge14" class="edge"><title>comment_block_13->process_block_3</title><path fill="none" stroke="#000000" stroke-dasharray="5,2" d="M288.906,-491.378C280.488,-483.092 270.547,-473.306 262.109,-465"/></g><!-- comment_block_14 --><g id="node14" class="node"><title>comment_block_14</title><polygon fill="url(#g-commentai835apwp02nqf286zme7b9)" stroke="#ffab40" points="216.417,-590.6 150.417,-590.6 150.417,-554.6 222.417,-554.6 222.417,-584.6 216.417,-590.6"/><polyline fill="white" stroke="#ffab40" points="216.417,-590.6 216.417,-584.6 " stroke-width="0"/><polyline fill="white" stroke="#ffab40" points="222.417,-584.6 216.417,-584.6 " stroke-width="0"/><text text-anchor="start" x="154.417" y="-569.1" font-family="Open Sans, Noto Sans SC, Noto Sans TC, Noto Sans JP, Noto Sans KR" font-size="8.00" fill="black">  To Adelaide Uni;</text></g><!-- comment_block_14&#45;&gt;process_block_2 --><g id="edge15" class="edge"><title>comment_block_14->process_block_2</title><path fill="none" stroke="#000000" stroke-dasharray="5,2" d="M167.906,-554.378C159.488,-546.092 149.547,-536.306 141.109,-528"/></g></g></svg>