<?xml version="1.0" encoding="UTF-8" standalone="no"?><!DOCTYPE svg PUBLIC "-//W3C//DTD SVG 1.1//EN" "http://www.w3.org/Graphics/SVG/1.1/DTD/svg11.dtd"><!-- Generated by graphviz version 2.39.20160930.0541 (20160930.0541) --><!-- Title: FlowChart Pages: 1 --><svg width="342pt" height="189pt" viewBox="0.00 0.00 342.23 188.6" xmlns="http://www.w3.org/2000/svg" xmlns:xlink="http://www.w3.org/1999/xlink"><defs><radialGradient id="g-terminatorqgligpgl" cx="0.5" cy="0.5" fx="0.9" fy="0.9" r="1" x1="0%" x2="0%" y1="100%" y2="0%" spreadMethod="pad"><stop offset="0%" stop-color="#C32F06" stop-opacity="1"/><stop offset="100%" stop-color="#C32F06" stop-opacity="1"/></radialGradient><radialGradient id="g-decisionqgligpgl" cx="0.5" cy="0.5" fx="0.9" fy="0.9" r="1" x1="0%" x2="0%" y1="100%" y2="0%" spreadMethod="pad"><stop offset="0%" stop-color="#d1461b" stop-opacity="1"/><stop offset="100%" stop-color="#d1461b" stop-opacity="1"/></radialGradient><radialGradient id="g-processqgligpgl" cx="0.5" cy="0.5" fx="0.9" fy="0.9" r="1" x1="0%" x2="0%" y1="100%" y2="0%" spreadMethod="pad"><stop offset="0%" stop-color="#3f51b5" stop-opacity="1"/><stop offset="100%" stop-color="#3f51b5" stop-opacity="1"/></radialGradient><radialGradient id="g-defaultqgligpgl" cx="0.5" cy="0.5" fx="0.9" fy="0.9" r="1" x1="0%" x2="0%" y1="100%" y2="0%" spreadMethod="pad"><stop offset="0%" stop-color="#005100" stop-opacity="1"/><stop offset="100%" stop-color="#005100" stop-opacity="1"/></radialGradient><radialGradient id="g-moduleqgligpgl" cx="0.5" cy="0.5" fx="0.9" fy="0.9" r="1" x1="0%" x2="0%" y1="100%" y2="0%" spreadMethod="pad"><stop offset="0%" stop-color="#009688" stop-opacity="1"/><stop offset="100%" stop-color="#009688" stop-opacity="1"/></radialGradient><radialGradient id="g-dataioqgligpgl" cx="0.5" cy="0.5" fx="0.9" fy="0.9" r="1" x1="0%" x2="0%" y1="100%" y2="0%" spreadMethod="pad"><stop offset="0%" stop-color="#607d8b" stop-opacity="1"/><stop offset="100%" stop-color="#607d8b" stop-opacity="1"/></radialGradient><radialGradient id="g-preparationqgligpgl" cx="0.5" cy="0.5" fx="0.9" fy="0.9" r="1" x1="0%" x2="0%" y1="100%" y2="0%" spreadMethod="pad"><stop offset="0%" stop-color="#607d8b" stop-opacity="1"/><stop offset="100%" stop-color="#607d8b" stop-opacity="1"/></radialGradient><radialGradient id="g-commentqgligpgl" cx="0.5" cy="0.5" fx="0.9" fy="0.9" r="1" x1="0%" x2="0%" y1="100%" y2="0%" spreadMethod="pad"><stop offset="0%" stop-color="#ffab40" stop-opacity="1"/><stop offset="100%" stop-color="#ffab40" stop-opacity="1"/></radialGradient><radialGradient id="g-manualqgligpgl" cx="0.5" cy="0.5" fx="0.9" fy="0.9" r="1" x1="0%" x2="0%" y1="100%" y2="0%" spreadMethod="pad"><stop offset="0%" stop-color="#673ab7" stop-opacity="1"/><stop offset="100%" stop-color="#673ab7" stop-opacity="1"/></radialGradient></defs><g id="page0,1_graph0" class="graph" transform="scale(1 1) rotate(0) translate(4 179.598)"><title>FlowChart</title><!-- terminator_block_1 --><g id="node1" class="node"><title>terminator_block_1</title><ellipse fill="url(#g-terminatorqgligpgl)" stroke="#C32F06" cx="168.711" cy="-157.598" rx="27" ry="18"/><text text-anchor="start" x="163.211" y="-155.098" font-family="Open Sans, Noto Sans SC, Noto Sans TC, Noto Sans JP, Noto Sans KR" font-size="10.00" fill="white">So</text></g><!-- ifs_block_2 --><g id="node2" class="node"><title>ifs_block_2</title><polygon fill="url(#g-decisionqgligpgl)" stroke="#d1461b" points="168.711,-112.598 77.0617,-94.598 168.711,-76.598 260.36,-94.598 168.711,-112.598"/><text text-anchor="start" x="121.711" y="-92.098" font-family="Open Sans, Noto Sans SC, Noto Sans TC, Noto Sans JP, Noto Sans KR" font-size="10.00" fill="white">The glass is half full?</text></g><!-- terminator_block_1&#45;&gt;ifs_block_2 --><g id="edge1" class="edge"><title>terminator_block_1->ifs_block_2</title><path fill="none" stroke="#000000" d="M168.711,-139.376C168.711,-134.327 168.711,-128.721 168.711,-123.232"/><polygon fill="#000000" stroke="#000000" points="172.211,-122.997 168.711,-112.997 165.211,-122.998 172.211,-122.997"/></g><!-- terminator_block_3 --><g id="node3" class="node"><title>terminator_block_3</title><ellipse fill="url(#g-terminatorqgligpgl)" stroke="#C32F06" cx="70.7107" cy="-19.799" rx="70.922" ry="19.6"/><text text-anchor="start" x="52.7107" y="-22.799" font-family="Open Sans, Noto Sans SC, Noto Sans TC, Noto Sans JP, Noto Sans KR" font-size="10.00" fill="white">Positive</text><text text-anchor="start" x="28.7107" y="-12.799" font-family="Open Sans, Noto Sans SC, Noto Sans TC, Noto Sans JP, Noto Sans KR" font-style="italic" font-size="10.00" fill="white">Good to have more</text></g><!-- ifs_block_2&#45;&gt;terminator_block_3 --><g id="edge2" class="edge"><title>ifs_block_2->terminator_block_3</title><path fill="none" stroke="#000000" d="M149.815,-80.176C136.675,-70.1466 118.819,-56.5177 103.396,-44.7466"/><polygon fill="#000000" stroke="#000000" points="105.197,-41.7179 95.1243,-38.4328 100.95,-47.2823 105.197,-41.7179"/><text text-anchor="start" x="125.711" y="-56.598" font-family="Open Sans, Noto Sans SC, Noto Sans TC, Noto Sans JP, Noto Sans KR" font-weight="bold" font-size="10.00" fill="#000000"> True </text><polyline fill="none" stroke="#000000" points="153.711,-52.598 113.792,-52.598 "/></g><!-- terminator_block_4 --><g id="node4" class="node"><title>terminator_block_4</title><ellipse fill="url(#g-terminatorqgligpgl)" stroke="#C32F06" cx="267.711" cy="-19.799" rx="61.5366" ry="19.6"/><text text-anchor="start" x="242.211" y="-22.799" font-family="Open Sans, Noto Sans SC, Noto Sans TC, Noto Sans JP, Noto Sans KR" font-size="10.00" fill="white">Pessimistic</text><text text-anchor="start" x="232.211" y="-12.799" font-family="Open Sans, Noto Sans SC, Noto Sans TC, Noto Sans JP, Noto Sans KR" font-style="italic" font-size="10.00" fill="white">Bad to have less</text></g><!-- ifs_block_2&#45;&gt;terminator_block_4 --><g id="edge3" class="edge"><title>ifs_block_2->terminator_block_4</title><path fill="none" stroke="#000000" d="M187.799,-80.176C201.168,-70.0749 219.37,-56.3228 235.025,-44.4946"/><polygon fill="#000000" stroke="#000000" points="237.545,-46.9776 243.413,-38.1567 233.325,-41.3925 237.545,-46.9776"/><text text-anchor="start" x="223.711" y="-56.598" font-family="Open Sans, Noto Sans SC, Noto Sans TC, Noto Sans JP, Noto Sans KR" font-weight="bold" font-size="10.00" fill="#000000"> False </text><polyline fill="none" stroke="#000000" points="253.711,-52.598 224.463,-52.598 "/></g></g></svg>