<?xml version="1.0" encoding="UTF-8" standalone="no"?><!DOCTYPE svg PUBLIC "-//W3C//DTD SVG 1.1//EN" "http://www.w3.org/Graphics/SVG/1.1/DTD/svg11.dtd"><!-- Generated by graphviz version 2.39.20160930.0541 (20160930.0541) --><!-- Title: FlowChart Pages: 1 --><svg width="612pt" height="628pt" viewBox="0.00 0.00 611.5 628" xmlns="http://www.w3.org/2000/svg" xmlns:xlink="http://www.w3.org/1999/xlink"><defs><radialGradient id="g-terminatordbgm2pujv6p318398xs9k9" cx="0.5" cy="0.5" fx="0.9" fy="0.9" r="1" x1="0%" x2="0%" y1="100%" y2="0%" spreadMethod="pad"><stop offset="0%" stop-color="#C32F06" stop-opacity="1"/><stop offset="100%" stop-color="#C32F06" stop-opacity="1"/></radialGradient><radialGradient id="g-decisiondbgm2pujv6p318398xs9k9" cx="0.5" cy="0.5" fx="0.9" fy="0.9" r="1" x1="0%" x2="0%" y1="100%" y2="0%" spreadMethod="pad"><stop offset="0%" stop-color="#d1461b" stop-opacity="1"/><stop offset="100%" stop-color="#d1461b" stop-opacity="1"/></radialGradient><radialGradient id="g-processdbgm2pujv6p318398xs9k9" cx="0.5" cy="0.5" fx="0.9" fy="0.9" r="1" x1="0%" x2="0%" y1="100%" y2="0%" spreadMethod="pad"><stop offset="0%" stop-color="#3f51b5" stop-opacity="1"/><stop offset="100%" stop-color="#3f51b5" stop-opacity="1"/></radialGradient><radialGradient id="g-defaultdbgm2pujv6p318398xs9k9" cx="0.5" cy="0.5" fx="0.9" fy="0.9" r="1" x1="0%" x2="0%" y1="100%" y2="0%" spreadMethod="pad"><stop offset="0%" stop-color="#005100" stop-opacity="1"/><stop offset="100%" stop-color="#005100" stop-opacity="1"/></radialGradient><radialGradient id="g-moduledbgm2pujv6p318398xs9k9" cx="0.5" cy="0.5" fx="0.9" fy="0.9" r="1" x1="0%" x2="0%" y1="100%" y2="0%" spreadMethod="pad"><stop offset="0%" stop-color="#009688" stop-opacity="1"/><stop offset="100%" stop-color="#009688" stop-opacity="1"/></radialGradient><radialGradient id="g-dataiodbgm2pujv6p318398xs9k9" cx="0.5" cy="0.5" fx="0.9" fy="0.9" r="1" x1="0%" x2="0%" y1="100%" y2="0%" spreadMethod="pad"><stop offset="0%" stop-color="#607d8b" stop-opacity="1"/><stop offset="100%" stop-color="#607d8b" stop-opacity="1"/></radialGradient><radialGradient id="g-preparationdbgm2pujv6p318398xs9k9" cx="0.5" cy="0.5" fx="0.9" fy="0.9" r="1" x1="0%" x2="0%" y1="100%" y2="0%" spreadMethod="pad"><stop offset="0%" stop-color="#607d8b" stop-opacity="1"/><stop offset="100%" stop-color="#607d8b" stop-opacity="1"/></radialGradient><radialGradient id="g-commentdbgm2pujv6p318398xs9k9" cx="0.5" cy="0.5" fx="0.9" fy="0.9" r="1" x1="0%" x2="0%" y1="100%" y2="0%" spreadMethod="pad"><stop offset="0%" stop-color="#ffab40" stop-opacity="1"/><stop offset="100%" stop-color="#ffab40" stop-opacity="1"/></radialGradient><radialGradient id="g-manualdbgm2pujv6p318398xs9k9" cx="0.5" cy="0.5" fx="0.9" fy="0.9" r="1" x1="0%" x2="0%" y1="100%" y2="0%" spreadMethod="pad"><stop offset="0%" stop-color="#673ab7" stop-opacity="1"/><stop offset="100%" stop-color="#673ab7" stop-opacity="1"/></radialGradient></defs><g id="page0,1_graph0" class="graph" transform="scale(1 1) rotate(0) translate(4 619)"><title>FlowChart</title><!-- terminator_block_1 --><g id="node1" class="node"><title>terminator_block_1</title><ellipse fill="url(#g-terminatordbgm2pujv6p318398xs9k9)" stroke="#C32F06" cx="488.5" cy="-597" rx="27" ry="18"/><text text-anchor="start" x="475.5" y="-594.5" font-family="Open Sans, Noto Sans SC, Noto Sans TC, Noto Sans JP, Noto Sans KR" font-size="10.00" fill="white">Begin</text></g><!-- ifs_block_2 --><g id="node2" class="node"><title>ifs_block_2</title><polygon fill="url(#g-decisiondbgm2pujv6p318398xs9k9)" stroke="#d1461b" points="488.5,-552 395.02,-534 488.5,-516 581.98,-534 488.5,-552"/><text text-anchor="start" x="440.5" y="-531.5" font-family="Open Sans, Noto Sans SC, Noto Sans TC, Noto Sans JP, Noto Sans KR" font-size="10.00" fill="white">Does Page Have Div?</text></g><!-- terminator_block_1&#45;&gt;ifs_block_2 --><g id="edge1" class="edge"><title>terminator_block_1->ifs_block_2</title><path fill="none" stroke="#000000" d="M488.5,-578.778C488.5,-573.729 488.5,-568.123 488.5,-562.634"/><polygon fill="#000000" stroke="#000000" points="492,-562.399 488.5,-552.4 485,-562.4 492,-562.399"/></g><!-- ifs_block_3 --><g id="node3" class="node"><title>ifs_block_3</title><polygon fill="url(#g-decisiondbgm2pujv6p318398xs9k9)" stroke="#d1461b" points="315.5,-479 248.136,-461 315.5,-443 382.864,-461 315.5,-479"/><text text-anchor="start" x="283" y="-458.5" font-family="Open Sans, Noto Sans SC, Noto Sans TC, Noto Sans JP, Noto Sans KR" font-size="10.00" fill="white">Is Auto Mode?</text></g><!-- ifs_block_2&#45;&gt;ifs_block_3 --><g id="edge3" class="edge"><title>ifs_block_2->ifs_block_3</title><path fill="none" stroke="#000000" d="M459.153,-521.617C429.362,-509.046 383.2,-489.567 351.282,-476.099"/><polygon fill="#000000" stroke="#000000" points="352.442,-472.789 341.868,-472.126 349.72,-479.239 352.442,-472.789"/><text text-anchor="start" x="411.5" y="-496" font-family="Open Sans, Noto Sans SC, Noto Sans TC, Noto Sans JP, Noto Sans KR" font-weight="bold" font-size="10.00" fill="#000000"> True </text><polyline fill="none" stroke="#000000" points="439.5,-492 388.003,-492 "/></g><!-- terminator_block_10 --><g id="node10" class="node"><title>terminator_block_10</title><ellipse fill="url(#g-terminatordbgm2pujv6p318398xs9k9)" stroke="#C32F06" cx="437.5" cy="-18" rx="27" ry="18"/><text text-anchor="start" x="429.5" y="-15.5" font-family="Open Sans, Noto Sans SC, Noto Sans TC, Noto Sans JP, Noto Sans KR" font-size="10.00" fill="white">Exit</text></g><!-- ifs_block_2&#45;&gt;terminator_block_10 --><g id="edge2" class="edge"><title>ifs_block_2->terminator_block_10</title><path fill="none" stroke="#000000" d="M517.835,-521.561C540.667,-509.688 568.5,-489.391 568.5,-461 568.5,-461 568.5,-461 568.5,-81 568.5,-59.6871 511.473,-39.0729 472.67,-27.5135"/><polygon fill="#000000" stroke="#000000" points="473.337,-24.0627 462.758,-24.6374 471.387,-30.7855 473.337,-24.0627"/><text text-anchor="start" x="568.5" y="-287" font-family="Open Sans, Noto Sans SC, Noto Sans TC, Noto Sans JP, Noto Sans KR" font-weight="bold" font-size="10.00" fill="#000000"> False </text><polyline fill="none" stroke="#000000" points="598.5,-283 568.5,-283 "/></g><!-- process_block_4 --><g id="node4" class="node"><title>process_block_4</title><polygon fill="url(#g-processdbgm2pujv6p318398xs9k9)" stroke="#3f51b5" points="185,-406 1.42109e-14,-406 1.42109e-14,-370 185,-370 185,-406"/><text text-anchor="start" x="7" y="-385.5" font-family="Open Sans, Noto Sans SC, Noto Sans TC, Noto Sans JP, Noto Sans KR" font-size="10.00" fill="white">post = GetTopPostMatching(pageUrl)</text></g><!-- ifs_block_3&#45;&gt;process_block_4 --><g id="edge4" class="edge"><title>ifs_block_3->process_block_4</title><path fill="none" stroke="#000000" d="M284.96,-451.003C252.204,-440.28 199.22,-422.935 157.13,-409.157"/><polygon fill="#000000" stroke="#000000" points="158.1,-405.792 147.507,-406.007 155.922,-412.444 158.1,-405.792"/><text text-anchor="start" x="217.5" y="-423" font-family="Open Sans, Noto Sans SC, Noto Sans TC, Noto Sans JP, Noto Sans KR" font-weight="bold" font-size="10.00" fill="#000000"> True </text><polyline fill="none" stroke="#000000" points="245.5,-419 185.99,-419 "/></g><!-- process_block_5 --><g id="node5" class="node"><title>process_block_5</title><polygon fill="url(#g-processdbgm2pujv6p318398xs9k9)" stroke="#3f51b5" points="387,-343 244,-343 244,-307 387,-307 387,-343"/><text text-anchor="start" x="251" y="-322.5" font-family="Open Sans, Noto Sans SC, Noto Sans TC, Noto Sans JP, Noto Sans KR" font-size="10.00" fill="white">GetAllCommentsFrom(post)</text></g><!-- ifs_block_3&#45;&gt;process_block_5 --><g id="edge6" class="edge"><title>ifs_block_3->process_block_5</title><path fill="none" stroke="#000000" d="M315.5,-442.94C315.5,-420.078 315.5,-380.431 315.5,-353.476"/><polygon fill="#000000" stroke="#000000" points="319,-353.134 315.5,-343.134 312,-353.134 319,-353.134"/><text text-anchor="start" x="315.5" y="-386.5" font-family="Open Sans, Noto Sans SC, Noto Sans TC, Noto Sans JP, Noto Sans KR" font-weight="bold" font-size="10.00" fill="#000000"> False </text><polyline fill="none" stroke="#000000" points="345.5,-382.5 315.5,-382.5 "/></g><!-- process_block_4&#45;&gt;process_block_5 --><g id="edge5" class="edge"><title>process_block_4->process_block_5</title><path fill="none" stroke="#000000" d="M156.403,-369.947C182.996,-362.434 214.036,-353.665 241.603,-345.877"/><polygon fill="#000000" stroke="#000000" points="242.916,-349.143 251.588,-343.056 241.013,-342.407 242.916,-349.143"/></g><!-- ifs_block_6 --><g id="node6" class="node"><title>ifs_block_6</title><polygon fill="url(#g-decisiondbgm2pujv6p318398xs9k9)" stroke="#d1461b" points="315.5,-270 215.701,-252 315.5,-234 415.299,-252 315.5,-270"/><text text-anchor="start" x="263.5" y="-249.5" font-family="Open Sans, Noto Sans SC, Noto Sans TC, Noto Sans JP, Noto Sans KR" font-size="10.00" fill="white">Does Discussion Exist?</text></g><!-- process_block_5&#45;&gt;ifs_block_6 --><g id="edge7" class="edge"><title>process_block_5->ifs_block_6</title><path fill="none" stroke="#000000" d="M315.5,-306.955C315.5,-298.883 315.5,-289.176 315.5,-280.182"/><polygon fill="#000000" stroke="#000000" points="319,-280.09 315.5,-270.09 312,-280.09 319,-280.09"/></g><!-- process_block_7 --><g id="node7" class="node"><title>process_block_7</title><polygon fill="url(#g-processdbgm2pujv6p318398xs9k9)" stroke="#3f51b5" points="492.5,-148 380.5,-148 380.5,-112 492.5,-112 492.5,-148"/><text text-anchor="start" x="423.5" y="-133" font-family="Open Sans, Noto Sans SC, Noto Sans TC, Noto Sans JP, Noto Sans KR" font-size="10.00" fill="white">Insert</text><text text-anchor="start" x="387.5" y="-122" font-family="Open Sans, Noto Sans SC, Noto Sans TC, Noto Sans JP, Noto Sans KR" font-size="10.00" fill="white">No Discussion Found</text></g><!-- ifs_block_6&#45;&gt;process_block_7 --><g id="edge8" class="edge"><title>ifs_block_6->process_block_7</title><path fill="none" stroke="#000000" d="M332.098,-236.701C337.39,-231.744 343.238,-226.187 348.5,-221 370.55,-199.267 394.981,-173.896 412.494,-155.472"/><polygon fill="#000000" stroke="#000000" points="415.208,-157.697 419.55,-148.033 410.129,-152.88 415.208,-157.697"/><text text-anchor="start" x="358.5" y="-214" font-family="Open Sans, Noto Sans SC, Noto Sans TC, Noto Sans JP, Noto Sans KR" font-weight="bold" font-size="10.00" fill="#000000"> False </text><polyline fill="none" stroke="#000000" points="388.5,-210 358.975,-210 "/></g><!-- process_block_8 --><g id="node8" class="node"><title>process_block_8</title><polygon fill="url(#g-processdbgm2pujv6p318398xs9k9)" stroke="#3f51b5" points="336,-197 241,-197 241,-161 336,-161 336,-197"/><text text-anchor="start" x="248" y="-176.5" font-family="Open Sans, Noto Sans SC, Noto Sans TC, Noto Sans JP, Noto Sans KR" font-size="10.00" fill="white">Order Comments</text></g><!-- ifs_block_6&#45;&gt;process_block_8 --><g id="edge10" class="edge"><title>ifs_block_6->process_block_8</title><path fill="none" stroke="#000000" d="M309.238,-235.069C306.116,-226.629 302.261,-216.206 298.725,-206.646"/><polygon fill="#000000" stroke="#000000" points="301.952,-205.28 295.2,-197.115 295.387,-207.708 301.952,-205.28"/><text text-anchor="start" x="304.5" y="-214" font-family="Open Sans, Noto Sans SC, Noto Sans TC, Noto Sans JP, Noto Sans KR" font-weight="bold" font-size="10.00" fill="#000000"> True </text><polyline fill="none" stroke="#000000" points="332.5,-210 300.064,-210 "/></g><!-- process_block_7&#45;&gt;terminator_block_10 --><g id="edge9" class="edge"><title>process_block_7->terminator_block_10</title><path fill="none" stroke="#000000" d="M436.665,-111.505C436.824,-93.7282 437.066,-66.6184 437.249,-46.1587"/><polygon fill="#000000" stroke="#000000" points="440.748,-46.1813 437.338,-36.1504 433.749,-46.1187 440.748,-46.1813"/></g><!-- process_block_9 --><g id="node9" class="node"><title>process_block_9</title><polygon fill="url(#g-processdbgm2pujv6p318398xs9k9)" stroke="#3f51b5" points="339,-99 236,-99 236,-63 339,-63 339,-99"/><text text-anchor="start" x="273" y="-84" font-family="Open Sans, Noto Sans SC, Noto Sans TC, Noto Sans JP, Noto Sans KR" font-size="10.00" fill="white">Insert </text><text text-anchor="start" x="243" y="-73" font-family="Open Sans, Noto Sans SC, Noto Sans TC, Noto Sans JP, Noto Sans KR" font-size="10.00" fill="white">Comments Into Div</text></g><!-- process_block_8&#45;&gt;process_block_9 --><g id="edge11" class="edge"><title>process_block_8->process_block_9</title><path fill="none" stroke="#000000" d="M288.312,-160.567C288.164,-146.103 287.956,-125.724 287.788,-109.211"/><polygon fill="#000000" stroke="#000000" points="291.286,-108.983 287.684,-99.0193 284.286,-109.055 291.286,-108.983"/></g><!-- process_block_9&#45;&gt;terminator_block_10 --><g id="edge12" class="edge"><title>process_block_9->terminator_block_10</title><path fill="none" stroke="#000000" d="M330.484,-62.9467C354.207,-52.9829 383.192,-40.8094 405.01,-31.6457"/><polygon fill="#000000" stroke="#000000" points="406.621,-34.7652 414.486,-27.6659 403.911,-28.3114 406.621,-34.7652"/></g><!-- comment_block_11 --><g id="node11" class="node"><title>comment_block_11</title><polygon fill="url(#g-commentdbgm2pujv6p318398xs9k9)" stroke="#ffab40" points="116.5,-479 62.5,-479 62.5,-443 122.5,-443 122.5,-473 116.5,-479"/><polyline fill="white" stroke="#ffab40" points="116.5,-479 116.5,-473 " stroke-width="0"/><polyline fill="white" stroke="#ffab40" points="122.5,-473 116.5,-473 " stroke-width="0"/><text text-anchor="start" x="66.5" y="-462" font-family="Open Sans, Noto Sans SC, Noto Sans TC, Noto Sans JP, Noto Sans KR" font-size="8.00" fill="black">  Hacker News</text><text text-anchor="start" x="68.5" y="-453" font-family="Open Sans, Noto Sans SC, Noto Sans TC, Noto Sans JP, Noto Sans KR" font-size="8.00" fill="black">  API Request</text></g><!-- comment_block_11&#45;&gt;process_block_4 --><g id="edge13" class="edge"><title>comment_block_11->process_block_4</title><path fill="none" stroke="#000000" stroke-dasharray="5,2" d="M92.5,-442.955C92.5,-431.724 92.5,-417.33 92.5,-406.09"/></g><!-- comment_block_12 --><g id="node12" class="node"><title>comment_block_12</title><polygon fill="url(#g-commentdbgm2pujv6p318398xs9k9)" stroke="#ffab40" points="464.5,-406 410.5,-406 410.5,-370 470.5,-370 470.5,-400 464.5,-406"/><polyline fill="white" stroke="#ffab40" points="464.5,-406 464.5,-400 " stroke-width="0"/><polyline fill="white" stroke="#ffab40" points="470.5,-400 464.5,-400 " stroke-width="0"/><text text-anchor="start" x="414.5" y="-389" font-family="Open Sans, Noto Sans SC, Noto Sans TC, Noto Sans JP, Noto Sans KR" font-size="8.00" fill="black">  Hacker News</text><text text-anchor="start" x="416.5" y="-380" font-family="Open Sans, Noto Sans SC, Noto Sans TC, Noto Sans JP, Noto Sans KR" font-size="8.00" fill="black">  API Request</text></g><!-- comment_block_12&#45;&gt;process_block_5 --><g id="edge14" class="edge"><title>comment_block_12->process_block_5</title><path fill="none" stroke="#000000" stroke-dasharray="5,2" d="M410.241,-372.749C392.466,-363.791 369.901,-352.418 351.252,-343.019"/></g></g></svg>